<?xml version="1.0" encoding="UTF-8" standalone="no"?>
<!DOCTYPE svg PUBLIC "-//W3C//DTD SVG 1.1//EN" "http://www.w3.org/Graphics/SVG/1.1/DTD/svg11.dtd">
<svg viewBox="0 0 394 338" version="1.1" xmlns="http://www.w3.org/2000/svg" xmlns:xlink="http://www.w3.org/1999/xlink" xml:space="preserve" xmlns:serif="http://www.serif.com/" style="fill-rule:evenodd;clip-rule:evenodd;stroke-linejoin:round;stroke-miterlimit:2;">
    <g id="Gemini_Generated_Image_xj1nikxj1nikxj1n--1-.png" serif:id="Gemini_Generated_Image_xj1nikxj1nikxj1n (1).png" transform="matrix(1,0,0,1,-3,-15)">
        <path d="M7.033,67.261C7.557,67.381 7.976,67.811 8.5,67.931C8.837,68.008 9.186,67.822 9.531,67.833C11.021,67.879 11.005,67.996 12.503,67.966C15.862,67.898 15.861,67.993 54.501,67.964C107.865,67.923 107.861,68.041 112.501,68.033C169.694,67.936 278.127,67.982 281.54,68.034C285.236,68.09 283.466,70.236 282.643,71.586C279.63,76.528 254.461,121.163 253.4,122.111C253.131,122.351 252.752,122.444 252.483,122.684C251.605,122.734 245.801,123.06 241.495,122.896C233.591,122.595 233.604,123.103 228.497,122.94C220.502,122.684 211.616,122.981 209.499,122.934C202.498,122.778 202.515,122.962 195.499,122.928C178.915,122.846 178.932,123.012 177.494,122.937C170.612,122.578 163.294,123.109 161.501,123.015C154.081,122.626 154.099,122.871 146.685,122.984L145.641,122.913L144.53,122.791C135.853,122.789 127.177,122.788 118.501,122.786C95.552,122.825 95.049,122.642 94.74,122.874C93.874,123.526 95.178,125.411 95.304,125.594C96.318,127.06 96.203,127.106 97.106,128.655C100.072,133.585 169.973,252.831 184.13,276.716C194.444,294.117 194.294,294.19 195.278,295.646C196.555,297.536 196.636,298.169 198.271,300.645C198.479,300.96 203.432,309.628 205.249,312.642C207.178,315.843 224.088,345.166 225.33,346.551C225.623,346.878 226.006,347.118 226.299,347.446C226.078,347.782 226.307,347.851 226.091,348.18C226.062,348.225 225.928,348.43 225.553,348.581C224.814,348.881 224.779,348.731 205.501,348.707C173.894,348.669 173.823,348.946 172.565,348.379C171.039,347.692 166.416,338.687 163.768,334.343C162.218,331.799 160.348,328.322 159.28,326.628C158.683,325.682 158.78,325.653 158.193,324.678C143.342,299.988 125.379,269.429 124.677,268.384C124.257,267.76 124.021,267.409 119.858,260.303C111.696,246.372 106.864,238.459 104.147,233.687C99.613,225.727 99.392,225.866 98.999,225.174C90.902,210.932 69.609,175.277 66.372,169.57C60.263,158.803 57.475,155.142 54.52,149.489C53.894,148.29 53.038,147.244 52.973,147.133C49.62,141.371 49.683,141.349 46.322,135.605C38.827,122.793 38.84,122.801 38.144,121.715C34.293,115.7 25.396,100.217 25.109,99.694C24.346,98.301 8.41,71.424 7.738,70.373C6.322,68.157 7.059,67.495 7.033,67.261Z" style="fill:rgb(60,59,59);"/>
        <path d="M364.345,18.592C365.696,20.675 365.667,20.668 367.004,22.771C368.287,24.789 368.228,24.804 369.139,26.738C370.561,29.758 373.178,34.374 374.319,36.592C379.03,45.75 379.238,45.632 379.617,46.443C380.476,48.279 381.882,50.329 382.11,50.793C384.258,55.175 384.483,55.048 384.655,55.435C386.477,59.518 389.246,64.23 390.361,66.549C391.36,68.628 390.638,69.433 388.719,72.616C387.554,74.549 387.973,74.763 386.617,76.592C386.308,77.009 382.299,83.953 382.128,84.219C378.926,89.186 379.08,89.264 378.79,89.687C375.872,93.939 375.89,94.625 374.262,97.381C367.764,108.384 367.904,108.461 367.248,109.357C365.765,111.388 363.808,115.275 363.166,116.267C361.433,118.943 361.722,119.094 359.963,121.776C357.301,125.836 354.579,130.65 354.136,131.353C351.033,136.285 351.276,136.401 348.299,141.382C343.85,148.826 344.028,148.922 343.63,149.562C340.406,154.742 340.547,154.824 340.244,155.259C336.944,159.99 337.549,160.343 335.012,164.098C332.955,167.143 333.24,167.306 331.153,170.314C329.591,172.565 321.388,187.414 319.904,189.688C318.667,191.583 316.937,194.699 316.885,194.781C315.459,197.022 315.41,196.969 314.135,199.307C312.565,202.186 302.201,219.024 297.168,228.333C296.621,229.344 295.843,230.784 289.767,240.642C287.438,244.42 287.548,244.462 285.663,247.6C282.895,252.209 282.972,252.244 282.715,252.634C282.388,253.129 280.394,256.415 280.392,256.418C275.131,265.828 275.216,265.876 274.658,266.629C272.968,268.906 273.195,269.629 271.727,271.626C271.438,272.019 268.457,276.856 268.175,277.312C265.039,282.401 262.429,286.904 261.941,287.745C257.816,294.86 257.791,294.841 257.455,295.472C254.293,301.409 249.693,308.573 249.297,309.4C247.444,313.273 247.159,313.097 244.923,316.764C243.973,318.321 235.484,332.238 233.481,336.488C231.176,341.379 230.526,341.083 229.372,343.426C227.798,346.624 227.256,346.478 226.299,347.446C226.006,347.118 225.623,346.878 225.33,346.551C224.088,345.166 207.178,315.843 205.249,312.642C203.432,309.628 198.479,300.96 198.271,300.645C196.636,298.169 196.555,297.536 195.278,295.646C194.294,294.19 194.444,294.117 184.13,276.716C169.973,252.831 100.072,133.585 97.106,128.655C97.529,128.18 97.809,127.589 98.232,127.114C98.573,126.733 117.59,127.095 119.501,127.025C122.835,126.902 146.479,127.004 146.5,126.989C147.006,126.624 147.097,125.841 147.604,125.476C150.616,130.807 150.542,130.828 151.157,131.721C151.523,132.251 152.8,134.105 155.386,138.565C157.632,142.437 157.796,142.314 159.932,146.229C160.126,146.584 160.99,147.58 161.457,148.534C162.5,150.664 165.278,155.258 165.85,156.34C166.168,156.94 167.768,159.963 170.158,163.647C172.707,167.578 174.038,170.658 176.133,173.73C177.597,175.876 181.859,183.201 181.897,183.252C184.006,186.112 184.631,187.885 186.25,190.62C191.474,199.444 191.276,199.557 191.77,200.299C193.532,202.945 198.851,212.193 198.87,212.22C198.87,212.22 200.596,213.6 200.746,213.72C200.831,214.107 200.194,214.385 203.836,220.301C207.483,226.227 207.232,226.349 210.841,232.289C213.88,237.29 213.762,237.331 216.733,242.36C222.414,251.976 222.535,251.891 223.021,252.731C224.679,255.597 224.411,256.074 225.51,256.085C226.156,256.092 226.211,256.078 226.521,255.52C227.234,254.237 227.171,254.214 229.384,250.45C255.21,206.513 257.738,201.362 263.596,191.561C270.809,179.493 270.59,179.379 271.244,178.347C272.676,176.087 278.715,165.304 279.309,164.38C281.3,161.281 358.941,26.927 359.3,26.376C361.261,23.358 360.82,23.022 364.345,18.592Z" style="fill:rgb(204,178,141);"/>
        <path d="M358.515,17.639L358.043,18.5C357.887,18.82 357.826,19.18 357.67,19.5C357.083,20.699 356.244,22.065 356.111,22.282C354.495,24.912 352.775,27.711 336.668,55.601C329.341,68.271 322.014,80.94 314.686,93.61C302.161,115.361 302.146,115.347 301.06,117.24C299.982,119.118 262.99,182.914 259.244,189.354C237.252,227.164 237.535,227.321 231.779,236.672C230.64,238.522 226.497,246.118 226.385,246.313L225.498,247.433C222.17,242.5 222.577,242.271 220.724,239.371C219.784,237.9 218.941,236.542 218.788,236.295C218.638,236.053 217.429,234.104 216.957,233.244C216.58,232.559 212.826,225.728 212.175,224.714C209.153,220.008 208.274,218.005 206.203,214.664C205.127,212.927 205.396,212.563 202.941,209.839C203.362,209.204 204.373,207.678 207.77,201.633C209.194,199.098 209.202,199.127 210.722,196.651C212.56,193.658 222.087,177.021 222.396,176.441C225.869,169.92 226.129,170.081 229.68,163.61C230.833,161.51 237.359,150.404 238.032,149.259C241.066,144.095 247.169,132.696 250.859,126.669C251.502,125.62 251.353,125.564 251.899,124.455C252.084,124.08 252.447,123.796 252.578,123.398C252.653,123.17 252.407,122.912 252.483,122.684C252.752,122.444 253.131,122.351 253.4,122.111C254.461,121.163 279.63,76.528 282.643,71.586C283.466,70.236 285.236,68.09 281.54,68.034C278.127,67.982 169.694,67.936 112.501,68.033C107.861,68.041 107.865,67.923 54.501,67.964C15.861,67.993 15.862,67.898 12.503,67.966C11.005,67.996 11.021,67.879 9.531,67.833C9.186,67.822 8.837,68.008 8.5,67.931C7.976,67.811 7.557,67.381 7.033,67.261C7.377,66.217 7.192,66.145 8.208,64.36C11.654,58.31 11.529,58.246 11.83,57.721C13.63,54.573 13.462,54.496 15.299,51.385C17.913,46.96 17.58,46.792 20.178,42.351C21.215,40.579 29.3,25.405 29.314,25.383C31.242,22.276 32.181,18.101 34.528,17.647C35.164,17.524 137.352,17.647 152.494,17.603C199.003,17.466 198.989,17.718 245.501,17.608C261.725,17.57 357.038,17.615 358.515,17.639Z" style="fill:rgb(122,122,121);"/>
        <path d="M358.515,17.639C358.834,17.626 362.236,17.493 362.497,17.514C363.625,17.608 363.549,17.812 364.345,18.592C360.82,23.022 361.261,23.358 359.3,26.376C358.941,26.927 281.3,161.281 279.309,164.38C278.715,165.304 272.676,176.087 271.244,178.347C270.59,179.379 270.809,179.493 263.596,191.561C257.738,201.362 255.21,206.513 229.384,250.45C227.171,254.214 227.234,254.237 226.521,255.52C226.211,256.078 226.156,256.092 225.51,256.085C224.411,256.074 224.679,255.597 223.021,252.731C222.535,251.891 222.414,251.976 216.733,242.36C213.762,237.331 213.88,237.29 210.841,232.289C207.232,226.349 207.483,226.227 203.836,220.301C200.194,214.385 200.831,214.107 200.746,213.72C200.844,213.55 201.037,213.448 201.135,213.278C201.289,213.008 201.186,212.979 202.941,209.839C205.396,212.563 205.127,212.927 206.203,214.664C208.274,218.005 209.153,220.008 212.175,224.714C212.826,225.728 216.58,232.559 216.957,233.244C217.429,234.104 218.638,236.053 218.788,236.295C218.941,236.542 219.784,237.9 220.724,239.371C222.577,242.271 222.17,242.5 225.498,247.433C225.794,247.06 226.09,246.686 226.385,246.313C226.497,246.118 230.64,238.522 231.779,236.672C237.535,227.321 237.252,227.164 259.244,189.354C262.99,182.914 299.982,119.118 301.06,117.24C302.146,115.347 302.161,115.361 314.686,93.61C322.014,80.94 329.341,68.271 336.668,55.601C352.775,27.711 354.495,24.912 356.111,22.282C356.244,22.065 357.083,20.699 357.67,19.5C357.826,19.18 357.887,18.82 358.043,18.5L358.515,17.639Z" style="fill:rgb(91,90,90);"/>
        <path d="M144.53,122.791C144.9,122.832 145.27,122.872 145.641,122.913L146.685,122.984C146.773,123.229 146.701,123.513 146.789,123.758C146.789,123.758 147.538,125.339 147.604,125.476C147.097,125.841 147.006,126.624 146.5,126.989C146.479,127.004 122.835,126.902 119.501,127.025C117.59,127.095 98.573,126.733 98.232,127.114C97.809,127.589 97.529,128.18 97.106,128.655C96.203,127.106 96.318,127.06 95.304,125.594C95.178,125.411 93.874,123.526 94.74,122.874C95.049,122.642 95.552,122.825 118.501,122.786C127.177,122.788 135.853,122.789 144.53,122.791Z" style="fill:rgb(138,122,99);"/>
    </g>
</svg>
